<svg width="37" height="40" viewBox="0 0 37 40" fill="none" xmlns="http://www.w3.org/2000/svg">
<path d="M22.1279 1.07331C20.8933 0.370126 19.4935 0 18.0686 0C16.6437 0 15.2438 0.370126 14.0093 1.07331L7.01228e-07 9.06873V25.0573C-0.000591804 26.4657 0.374305 27.8494 1.08694 29.069C1.79957 30.2887 2.82477 31.3012 4.0593 32.0046L18.0686 40L32.0779 32.0046C33.3124 31.3012 34.3376 30.2887 35.0502 29.069C35.7628 27.8494 36.1377 26.4657 36.1371 25.0573V9.06873L22.1279 1.07331ZM16.7363 36.5561L5.28243 30.0184C4.39307 29.5091 3.65497 28.7775 3.14227 27.897C2.62958 27.0165 2.36034 26.0182 2.36161 25.0023V11.9291L6.59469 14.3513C7.05308 14.6129 7.43376 14.989 7.69852 15.442C7.96327 15.895 8.10278 16.4089 8.10301 16.932V25.0793L9.50884 25.8809V19.2771L11.886 20.6336C12.3448 20.8953 12.7257 21.2718 12.9904 21.7252C13.2552 22.1786 13.3945 22.693 13.3944 23.2165V28.0851L16.7363 29.9942V36.5561ZM17.037 13.4529L12.7772 11.0307L9.43531 12.9398L3.68947 9.65884L15.1433 3.12337C16.034 2.61487 17.0444 2.34714 18.073 2.34714C19.1016 2.34714 20.1121 2.61487 21.0028 3.12337L32.4566 9.65884L28.2235 12.081C27.7646 12.3429 27.244 12.4808 26.7141 12.4808C26.1842 12.4808 25.6636 12.3429 25.2047 12.081L18.0753 8.01176L16.6694 8.81549L22.4376 12.1185L20.0604 13.4749C19.5991 13.7347 19.0766 13.8695 18.5457 13.8656C18.0148 13.8617 17.4944 13.7194 17.037 13.4529ZM33.7755 25.0023C33.7755 26.0187 33.5047 27.0171 32.9905 27.8973C32.4762 28.7774 31.7365 29.5082 30.8458 30.0162L19.392 36.5517V31.7073C19.3918 31.1838 19.5311 30.6695 19.7959 30.2161C20.0607 29.7627 20.4416 29.3861 20.9003 29.1244L28.0297 25.0573V23.4609L22.2593 26.7639V24.051C22.2592 23.5275 22.3985 23.0132 22.6632 22.5598C22.928 22.1064 23.3089 21.7298 23.7676 21.4681L28.0297 19.0459V15.2277L33.7755 11.9313V25.0023Z" fill="#1379FF"/>
</svg>
