<svg width="32" height="32" viewBox="0 0 32 32" fill="none" xmlns="http://www.w3.org/2000/svg">
<path d="M16 29.3333C23.3638 29.3333 29.3334 23.3638 29.3334 16C29.3334 8.63616 23.3638 2.66663 16 2.66663C8.63622 2.66663 2.66669 8.63616 2.66669 16C2.66669 23.3638 8.63622 29.3333 16 29.3333Z" fill="#E84142"/>
<path d="M20.7033 16.3465C21.1653 15.5486 21.9107 15.5486 22.3726 16.3465L25.2493 21.3963C25.7112 22.1942 25.3332 22.8451 24.4094 22.8451H18.6141C17.7007 22.8451 17.3227 22.1942 17.7742 21.3963L20.7033 16.3465ZM15.139 6.62467C15.601 5.82677 16.3359 5.82677 16.7978 6.62467L17.4382 7.77953L18.95 10.4357C19.3175 11.1916 19.3175 12.084 18.95 12.8399L13.8792 21.6273C13.4172 22.3412 12.6508 22.7926 11.8004 22.8451H7.59045C6.66657 22.8451 6.28862 22.2047 6.75056 21.3963L15.139 6.62467Z" fill="white"/>
</svg>
