<svg width="32" height="32" viewBox="0 0 32 32" fill="none" xmlns="http://www.w3.org/2000/svg">
<mask id="mask0_7001_973" style="mask-type:luminance" maskUnits="userSpaceOnUse" x="4" y="4" width="24" height="24">
<path fill-rule="evenodd" clip-rule="evenodd" d="M16 28C22.6274 28 28 22.6274 28 16C28 9.37258 22.6274 4 16 4C9.37258 4 4 9.37258 4 16C4 22.6274 9.37258 28 16 28Z" fill="white"/>
</mask>
<g mask="url(#mask0_7001_973)">
<path fill-rule="evenodd" clip-rule="evenodd" d="M11.3393 14.0849L16.0001 9.42432L20.6634 14.0874L23.3754 11.3754L16.0001 4L8.62738 11.3729L11.3393 14.0849ZM6.71225 13.2876L9.42417 15.9995L6.71198 18.7117L4.00006 15.9998L6.71225 13.2876ZM16.0001 22.5755L11.3393 17.9149L8.62338 20.6233L8.62717 20.6271L16.0001 28L23.3754 20.6246L23.3767 20.6231L20.6632 17.9126L16.0001 22.5755ZM28.0004 16.0012L25.2883 18.7132L22.5764 16.0013L25.2885 13.2892L28.0004 16.0012ZM18.752 15.9987H18.7508L18.7533 16L18.752 16.0015L16 18.7533L13.2505 16.0038L13.2467 16L13.2505 15.996L13.7326 15.514L13.9661 15.2805H13.9663L16 13.2465L18.752 15.9987Z" fill="#F5BC00"/>
</g>
</svg>
