<?xml version="1.0" encoding="UTF-8"?>
<svg width="33px" height="53px" viewBox="0 0 33 53" version="1.1" xmlns="http://www.w3.org/2000/svg" xmlns:xlink="http://www.w3.org/1999/xlink">
    <g stroke="none" stroke-width="1" fill="none" fill-rule="evenodd">
        <g transform="translate(-844.000000, -173.000000)" fill="#8A92B2" fill-rule="nonzero">
            <g transform="translate(844.000000, 173.000000)">
                <path d="M16.3992342,0 L16.0869565,1.06666667 L16.0869565,36.2196428 L16.3992342,36.5333333 L32.7984683,27.07 L16.3992342,0 Z" fill="#343434"></path>
                <path d="M16.3992342,0 L0,27.07 L16.3992342,36.5333333 L16.3992342,19.5333333 L16.3992342,0 Z" fill="#8C8C8C"></path>
                <path d="M16.3992342,39.6033333 L16.2198068,39.8233333 L16.2198068,52.2066667 L16.3992342,52.7366667 L32.8,30.1433333 L16.3992342,39.6033333 Z" fill="#3C3C3B"></path>
                <path d="M16.3992342,52.7366667 L16.3992342,39.6033333 L0,30.1433333 L16.3992342,52.7366667 Z" fill="#8C8C8C"></path>
                <path d="M16.3992342,36.5333333 L32.7984683,27.07 L16.3992342,19.5333333 L16.3992342,36.5333333 Z" fill="#141414"></path>
                <path d="M0,27.07 L16.3992342,36.5333333 L16.3992342,19.5333333 L0,27.07 Z" fill="#393939"></path>
            </g>
        </g>
    </g>
</svg>