<svg width="145" height="40" viewBox="0 0 145 40" fill="none" xmlns="http://www.w3.org/2000/svg">
<path d="M22.1279 1.07331C20.8933 0.370126 19.4935 0 18.0686 0C16.6437 0 15.2438 0.370126 14.0093 1.07331L7.01228e-07 9.06873V25.0573C-0.000591804 26.4657 0.374305 27.8494 1.08694 29.069C1.79957 30.2887 2.82477 31.3012 4.0593 32.0046L18.0686 40L32.0779 32.0046C33.3124 31.3012 34.3376 30.2887 35.0502 29.069C35.7628 27.8494 36.1377 26.4657 36.1371 25.0573V9.06873L22.1279 1.07331ZM16.7363 36.5561L5.28243 30.0184C4.39307 29.5091 3.65497 28.7775 3.14227 27.897C2.62958 27.0165 2.36034 26.0182 2.36161 25.0023V11.9291L6.59469 14.3513C7.05308 14.6129 7.43376 14.989 7.69852 15.442C7.96327 15.895 8.10278 16.4089 8.10301 16.932V25.0793L9.50884 25.8809V19.2771L11.886 20.6336C12.3448 20.8953 12.7257 21.2718 12.9904 21.7252C13.2552 22.1786 13.3945 22.693 13.3944 23.2165V28.0851L16.7363 29.9942V36.5561ZM17.037 13.4529L12.7772 11.0307L9.43531 12.9398L3.68947 9.65884L15.1433 3.12337C16.034 2.61487 17.0444 2.34714 18.073 2.34714C19.1016 2.34714 20.1121 2.61487 21.0028 3.12337L32.4566 9.65884L28.2235 12.081C27.7646 12.3429 27.244 12.4808 26.7141 12.4808C26.1842 12.4808 25.6636 12.3429 25.2047 12.081L18.0753 8.01176L16.6694 8.81549L22.4376 12.1185L20.0604 13.4749C19.5991 13.7347 19.0766 13.8695 18.5457 13.8656C18.0148 13.8617 17.4944 13.7194 17.037 13.4529ZM33.7755 25.0023C33.7755 26.0187 33.5047 27.0171 32.9905 27.8973C32.4762 28.7774 31.7365 29.5082 30.8458 30.0162L19.392 36.5517V31.7073C19.3918 31.1838 19.5311 30.6695 19.7959 30.2161C20.0607 29.7627 20.4416 29.3861 20.9003 29.1244L28.0297 25.0573V23.4609L22.2593 26.7639V24.051C22.2592 23.5275 22.3985 23.0132 22.6632 22.5598C22.928 22.1064 23.3089 21.7298 23.7676 21.4681L28.0297 19.0459V15.2277L33.7755 11.9313V25.0023Z" fill="#1379FF"/>
<path d="M47.5536 13.0052H57.0251V8.44071H47.5536V13.0052ZM47.5536 21.6306H56.7225V17.3494H47.5536V21.6306ZM44.1645 8.44071V30.4764H49.0666V8.44071H44.1645Z" fill="#1379FF"/>
<path d="M60.1641 10.5498C60.1641 11.3054 60.4264 11.9245 60.9509 12.4071C61.4754 12.8898 62.1008 13.1312 62.827 13.1312C63.5734 13.1312 64.1988 12.8898 64.7032 12.4071C65.2277 11.9245 65.4899 11.3054 65.4899 10.5498C65.4899 9.79433 65.2277 9.18573 64.7032 8.72403C64.1988 8.24134 63.5734 8 62.827 8C62.1008 8 61.4754 8.24134 60.9509 8.72403C60.4264 9.18573 60.1641 9.79433 60.1641 10.5498ZM60.618 15.9958V30.4764H65.036V15.9958H60.618Z" fill="#1379FF"/>
<path d="M68.285 31.5152C68.3859 32.7954 68.7187 33.9182 69.2836 34.8835C69.8484 35.8699 70.6856 36.6359 71.7952 37.1815C72.9249 37.7272 74.3471 38 76.0619 38C77.4942 38 78.7853 37.7272 79.9352 37.1815C81.0851 36.6569 82.003 35.8174 82.6889 34.6632C83.395 33.5089 83.748 32.0084 83.748 30.1616V15.9958H79.3603V30.1616C79.3603 31.043 79.1989 31.7775 78.8761 32.3652C78.5735 32.9738 78.1599 33.425 77.6354 33.7188C77.1109 34.0336 76.5259 34.191 75.8803 34.191C75.2953 34.191 74.7708 34.086 74.3068 33.8762C73.8428 33.6873 73.4696 33.3935 73.1872 32.9948C72.9249 32.596 72.7635 32.1028 72.703 31.5152H68.285ZM67.9824 23.0472C67.9824 24.6632 68.2951 26.0168 68.9205 27.1081C69.566 28.1994 70.3931 29.0283 71.4018 29.595C72.4105 30.1406 73.4797 30.4134 74.6094 30.4134C75.7795 30.4134 76.8083 30.1301 77.6959 29.5635C78.6037 28.9759 79.3199 28.1364 79.8444 27.0451C80.3689 25.9328 80.6312 24.6002 80.6312 23.0472C80.6312 21.4732 80.3689 20.1406 79.8444 19.0493C79.3199 17.958 78.6037 17.1291 77.6959 16.5624C76.8083 15.9748 75.7795 15.681 74.6094 15.681C73.4797 15.681 72.4105 15.9538 71.4018 16.4995C70.3931 17.0451 69.566 17.8636 68.9205 18.9549C68.2951 20.0462 67.9824 21.4103 67.9824 23.0472ZM72.7938 23.0472C72.7938 22.2917 72.9451 21.6516 73.2477 21.127C73.5503 20.6023 73.9537 20.2036 74.4581 19.9307C74.9624 19.6579 75.5172 19.5215 76.1224 19.5215C76.5057 19.5215 76.889 19.595 77.2723 19.7419C77.6556 19.8888 77.9985 20.1091 78.3011 20.4029C78.6239 20.6967 78.8761 21.064 79.0577 21.5047C79.2594 21.9454 79.3603 22.4596 79.3603 23.0472C79.3603 23.8237 79.1989 24.4743 78.8761 24.999C78.5533 25.5236 78.1398 25.9224 77.6354 26.1952C77.1513 26.447 76.6469 26.5729 76.1224 26.5729C75.5172 26.5729 74.9624 26.4365 74.4581 26.1637C73.9537 25.8909 73.5503 25.4921 73.2477 24.9675C72.9451 24.4218 72.7938 23.7817 72.7938 23.0472Z" fill="#1379FF"/>
<path d="M94.3497 30.7912C96.125 30.7912 97.6279 30.4344 98.8585 29.7209C100.109 29.0073 101.098 27.937 101.824 26.51L97.7389 25.4711C97.3959 26.1007 96.932 26.5729 96.3469 26.8877C95.7821 27.2025 95.0962 27.3599 94.2892 27.3599C93.5831 27.3599 92.988 27.2025 92.5039 26.8877C92.0197 26.5519 91.6566 26.0693 91.4145 25.4397C91.1724 24.8101 91.0514 24.0546 91.0514 23.1731C91.0715 22.2078 91.1926 21.4103 91.4145 20.7807C91.6566 20.1301 92.0096 19.6474 92.4736 19.3326C92.9376 19.0178 93.5125 18.8604 94.1984 18.8604C94.7431 18.8604 95.2172 18.9864 95.6207 19.2382C96.0241 19.49 96.3368 19.8468 96.5587 20.3085C96.7807 20.7702 96.8916 21.3158 96.8916 21.9454C96.8916 22.0923 96.8513 22.2812 96.7706 22.5121C96.71 22.7219 96.6294 22.9003 96.5285 23.0472L97.6179 21.5992H89.0239V24.2434H101.733C101.774 24.0965 101.794 23.9182 101.794 23.7083C101.794 23.4774 101.794 23.2466 101.794 23.0157C101.794 21.4628 101.501 20.1406 100.916 19.0493C100.331 17.958 99.4839 17.1291 98.3744 16.5624C97.2648 15.9748 95.9031 15.681 94.2892 15.681C92.6753 15.681 91.2733 15.9853 90.083 16.5939C88.913 17.2025 88.0153 18.0735 87.3899 19.2067C86.7645 20.34 86.4518 21.6831 86.4518 23.2361C86.4518 24.7681 86.7746 26.1007 87.4201 27.234C88.0657 28.3673 88.9735 29.2487 90.1436 29.8783C91.3338 30.4869 92.7359 30.7912 94.3497 30.7912Z" fill="#1379FF"/>
<path d="M113.663 21.6621V30.4764H118.414V21.1584C118.414 19.4166 118.021 18.063 117.234 17.0976C116.447 16.1322 115.186 15.6495 113.451 15.6495C112.422 15.6495 111.555 15.8699 110.849 16.3106C110.163 16.7513 109.618 17.3704 109.215 18.1679V15.9958H104.615V30.4764H109.215V21.6621C109.215 21.0955 109.316 20.6128 109.517 20.2141C109.719 19.8153 110.002 19.511 110.365 19.3012C110.728 19.0913 111.152 18.9864 111.636 18.9864C112.362 18.9864 112.876 19.2172 113.179 19.6789C113.502 20.1406 113.663 20.8017 113.663 21.6621Z" fill="#1379FF"/>
<path d="M120.387 15.9958V19.9307H129.707V15.9958H120.387ZM122.838 10.9591V30.4764H127.226V10.9591H122.838Z" fill="#1379FF"/>
<path d="M135.195 25.9433C135.195 25.5866 135.276 25.2928 135.437 25.0619C135.598 24.8101 135.841 24.6212 136.163 24.4953C136.486 24.3694 136.92 24.3064 137.465 24.3064C138.171 24.3064 138.836 24.4113 139.462 24.6212C140.107 24.8101 140.672 25.0934 141.156 25.4711V23.362C140.914 23.0892 140.551 22.8269 140.067 22.575C139.583 22.3232 138.998 22.1133 138.312 21.9454C137.646 21.7775 136.89 21.6936 136.042 21.6936C134.307 21.6936 132.966 22.1028 132.018 22.9213C131.07 23.7188 130.595 24.8101 130.595 26.1952C130.595 27.1815 130.817 28.021 131.261 28.7135C131.725 29.4061 132.33 29.9307 133.077 30.2875C133.843 30.6233 134.67 30.7912 135.558 30.7912C136.446 30.7912 137.273 30.6338 138.039 30.319C138.806 29.9832 139.431 29.5005 139.916 28.8709C140.4 28.2204 140.642 27.4334 140.642 26.51L140.158 24.6212C140.158 25.2928 140.016 25.8594 139.734 26.3211C139.452 26.7828 139.088 27.1291 138.645 27.3599C138.201 27.5908 137.717 27.7062 137.192 27.7062C136.829 27.7062 136.496 27.6432 136.194 27.5173C135.891 27.3704 135.649 27.171 135.467 26.9192C135.286 26.6464 135.195 26.3211 135.195 25.9433ZM133.168 20.4344C133.369 20.3085 133.692 20.1511 134.136 19.9622C134.58 19.7524 135.094 19.574 135.679 19.4271C136.284 19.2802 136.9 19.2067 137.525 19.2067C137.949 19.2067 138.322 19.2487 138.645 19.3326C138.988 19.4166 139.27 19.553 139.492 19.7419C139.714 19.9307 139.875 20.1616 139.976 20.4344C140.097 20.6863 140.158 20.9906 140.158 21.3473V30.4764H144.545V20.277C144.545 19.2697 144.263 18.4197 143.698 17.7272C143.133 17.0346 142.367 16.51 141.398 16.1532C140.43 15.7754 139.331 15.5866 138.1 15.5866C136.789 15.5866 135.578 15.765 134.469 16.1217C133.359 16.4785 132.411 16.8562 131.624 17.255L133.168 20.4344Z" fill="#1379FF"/>
</svg>
