<svg width="25" height="24" viewBox="0 0 25 24" fill="none" xmlns="http://www.w3.org/2000/svg">
<path d="M17.3792 8.84073C17.0503 8.65274 16.6273 8.65274 16.2513 8.84073L13.6195 10.3916L11.8336 11.3786L9.24869 12.9295C8.91971 13.1175 8.49674 13.1175 8.12076 12.9295L6.09987 11.7076C5.77089 11.5196 5.5359 11.1436 5.5359 10.7206V8.37076C5.5359 7.99478 5.72389 7.6188 6.09987 7.38381L8.12076 6.20888C8.44974 6.02089 8.87272 6.02089 9.24869 6.20888L11.2696 7.43081C11.5986 7.6188 11.8336 7.99478 11.8336 8.41775V9.96867L13.6195 8.93473V7.33681C13.6195 6.96084 13.4315 6.58486 13.0555 6.34987L9.29569 4.14099C8.96671 3.953 8.54373 3.953 8.16775 4.14099L4.31397 6.39687C3.93799 6.58486 3.75 6.96084 3.75 7.33681V11.7546C3.75 12.1305 3.93799 12.5065 4.31397 12.7415L8.12076 14.9504C8.44974 15.1384 8.87272 15.1384 9.24869 14.9504L11.8336 13.4465L13.6195 12.4125L16.2043 10.9086C16.5333 10.7206 16.9563 10.7206 17.3322 10.9086L19.3531 12.0836C19.6821 12.2715 19.9171 12.6475 19.9171 13.0705V15.4204C19.9171 15.7963 19.7291 16.1723 19.3531 16.4073L17.3792 17.5822C17.0503 17.7702 16.6273 17.7702 16.2513 17.5822L14.2304 16.4073C13.9014 16.2193 13.6664 15.8433 13.6664 15.4204V13.9164L11.8805 14.9504V16.5013C11.8805 16.8773 12.0685 17.2533 12.4445 17.4883L16.2513 19.6971C16.5803 19.8851 17.0033 19.8851 17.3792 19.6971L21.186 17.4883C21.515 17.3003 21.75 16.9243 21.75 16.5013V12.0366C21.75 11.6606 21.562 11.2846 21.186 11.0496L17.3792 8.84073Z" fill="#8247E5"/>
</svg>
